<svg width="24" height="18" viewBox="0 0 24 18" fill="none" xmlns="http://www.w3.org/2000/svg">
<g clip-path="url(#clip0_4002_8537)">
<path d="M1 8.55555C1 11.0766 3.03453 13.1111 5.55556 13.1111H17.1789C19.6999 13.1111 21.7345 11.0766 21.7345 8.55555C21.7345 6.03452 19.6999 4 17.1789 4C14.6579 4 12.6145 6.03452 12.6145 8.55555C12.6145 9.81165 13.1187 10.9439 13.9502 11.7577H8.78429C9.61578 10.9439 10.12 9.81165 10.12 8.55555C10.12 6.03452 8.08547 4 5.55556 4C3.03453 4 1 6.03452 1 8.55555ZM2.36225 8.54671C2.36225 6.77757 3.79526 5.34456 5.56443 5.34456C7.33358 5.34456 8.76657 6.77757 8.76657 8.54671C8.76657 10.3247 7.33358 11.7577 5.56443 11.7577C3.79526 11.7577 2.36225 10.3247 2.36225 8.54671ZM13.9679 8.54671C13.9679 6.77757 15.4009 5.34456 17.1701 5.34456C18.9392 5.34456 20.3811 6.77757 20.3811 8.54671C20.3811 10.3247 18.9392 11.7577 17.1701 11.7577C15.4009 11.7577 13.9679 10.3247 13.9679 8.54671Z" fill="#B5B5B5"/>
</g>
<defs>
<clipPath id="clip0_4002_8537">
<rect width="20.8583" height="9.11999" fill="white" transform="translate(1 4)"/>
</clipPath>
</defs>
</svg>
