<svg width="20" height="20" viewBox="0 0 20 20" fill="none" xmlns="http://www.w3.org/2000/svg">
<path d="M16.5773 12.5973C16.8185 14.669 16.8843 14.7348 19 15.0088C19.2193 15.0417 19.3728 15.2061 19.3728 15.4144C19.3728 15.6117 19.2193 15.7761 19.011 15.8199C16.8514 16.2255 16.8295 16.2255 16.5773 18.2424C16.5444 18.4507 16.369 18.6042 16.1717 18.6042C15.9525 18.6042 15.788 18.4397 15.7661 18.2205C15.5359 16.2146 15.4701 16.1378 13.3653 15.8199C13.1242 15.7761 12.9707 15.6227 12.9707 15.4144C12.9707 15.2171 13.1132 15.0526 13.3215 15.0088C15.4701 14.6142 15.5359 14.6142 15.7661 12.6083C15.788 12.389 15.9525 12.2246 16.1717 12.2246C16.38 12.2246 16.5554 12.3781 16.5773 12.5973Z" fill="#B5B5B5"/>
<path d="M7.07403 1.27404C7.35907 2.76479 7.32616 2.7319 8.81704 3.02786C8.99247 3.04979 9.09112 3.18132 9.09112 3.34574C9.09112 3.4992 8.99247 3.63074 8.81704 3.66363C7.32616 3.94862 7.35907 3.91574 7.07403 5.40649C7.04112 5.57093 6.9096 5.68052 6.75612 5.68052C6.59169 5.68052 6.47109 5.57093 6.43822 5.40649C6.15318 3.91574 6.18609 3.94862 4.69518 3.66363C4.51978 3.63074 4.41016 3.4992 4.41016 3.34574C4.41016 3.18132 4.51978 3.04979 4.69518 3.02786C6.18609 2.7319 6.15318 2.76479 6.43822 1.27404C6.47109 1.10961 6.59169 1 6.75612 1C6.9096 1 7.04112 1.10961 7.07403 1.27404Z" fill="#B5B5B5"/>
<path d="M9.28772 15.8416C9.28772 17.2447 8.14766 18.3957 6.75542 18.3957C5.35222 18.3957 4.20117 17.2447 4.20117 15.8416C4.20117 14.4605 5.35222 13.3096 6.75542 13.3096C8.14766 13.3096 9.28772 14.4605 9.28772 15.8416Z" fill="#B5B5B5"/>
<path d="M5.74673 8.19089C5.74673 9.49531 4.67241 10.5695 3.37884 10.5695C2.07432 10.5695 1 9.49531 1 8.19089C1 6.88652 2.07432 5.82324 3.37884 5.82324C4.67241 5.82324 5.74673 6.88652 5.74673 8.19089Z" fill="#B5B5B5"/>
<path d="M19.0994 5.98782C19.0994 8.03544 17.6301 9.73936 15.6872 10.1005C15.7338 9.85875 15.7558 9.60849 15.7558 9.35297C15.7558 6.97437 13.8265 5.04514 11.4367 5.04514C11.2313 5.04514 11.0292 5.05952 10.833 5.09228C11.2392 3.21187 12.9066 1.81152 14.9117 1.81152C17.2248 1.81152 19.0994 3.67496 19.0994 5.98782Z" fill="#B5B5B5"/>
<path d="M11.4363 12.5973C13.2341 12.5973 14.6812 11.1504 14.6812 9.35274C14.6812 7.56602 13.2341 6.11914 11.4363 6.11914C9.63847 6.11914 8.19141 7.56602 8.19141 9.35274C8.19141 11.1504 9.63847 12.5973 11.4363 12.5973Z" fill="#B5B5B5"/>
</svg>
