<svg width="20" height="20" viewBox="0 0 20 20" fill="none" xmlns="http://www.w3.org/2000/svg">
<path d="M8.23855 15.5623C8.47823 15.5623 8.63591 15.4026 8.62961 15.1697L8.43407 8.05125C8.42777 7.81841 8.27009 7.66539 8.04302 7.66539C7.80334 7.66539 7.64566 7.82506 7.65197 8.05791L7.84119 15.1697C7.84749 15.4093 8.00518 15.5623 8.23855 15.5623ZM10.1055 15.5623C10.3452 15.5623 10.5155 15.4026 10.5155 15.1697V8.05791C10.5155 7.82506 10.3452 7.66539 10.1055 7.66539C9.86585 7.66539 9.70185 7.82506 9.70185 8.05791V15.1697C9.70185 15.4026 9.86585 15.5623 10.1055 15.5623ZM11.9788 15.5623C12.2059 15.5623 12.3636 15.4093 12.3699 15.1697L12.5591 8.05791C12.5654 7.82506 12.4077 7.66539 12.168 7.66539C11.941 7.66539 11.7833 7.81841 11.777 8.05791L11.5877 15.1697C11.5815 15.4026 11.7391 15.5623 11.9788 15.5623ZM7.3366 5.92901H8.33947V4.50531C8.33947 4.1261 8.59176 3.87994 8.9702 3.87994H11.2282C11.6067 3.87994 11.859 4.1261 11.859 4.50531V5.92901H12.8618V4.43878C12.8618 3.47412 12.2689 2.88867 11.2976 2.88867H8.90082C7.92949 2.88867 7.3366 3.47412 7.3366 4.43878V5.92901ZM4.47305 6.46123H15.7443C16.0029 6.46123 16.211 6.22838 16.211 5.95562C16.211 5.68285 16.0029 5.45666 15.7443 5.45666H4.47305C4.22076 5.45666 4 5.68285 4 5.95562C4 6.23504 4.22076 6.46123 4.47305 6.46123ZM7.21676 17.7045H13.0006C13.9025 17.7045 14.508 17.0857 14.5522 16.1345L14.9937 6.33483H13.9782L13.5556 16.0213C13.543 16.4205 13.2718 16.6999 12.8997 16.6999H7.30506C6.94554 16.6999 6.67432 16.4138 6.6554 16.0213L6.20758 6.33483H5.21732L5.66514 16.1411C5.70929 17.0924 6.30219 17.7045 7.21676 17.7045Z" fill="#B5B5B5"/>
</svg>
