<svg width="20" height="20" viewBox="0 0 20 20" fill="none" xmlns="http://www.w3.org/2000/svg">
<g clip-path="url(#clip0_4002_8495)">
<path d="M6.17822 19.0002C6.6321 19.0002 6.94155 18.7629 7.49857 18.2575L10.263 15.7818H15.1112C17.6487 15.7818 18.9794 14.4099 18.9794 11.9136V5.91019C18.9794 3.41392 17.6487 2.04199 15.1112 2.04199H4.8682C2.33067 2.04199 1 3.41392 1 5.91019V11.9136C1 14.4099 2.33067 15.7818 4.8682 15.7818H5.16734V17.8346C5.16734 18.5463 5.52837 19.0002 6.17822 19.0002ZM6.55989 17.3085V14.9876C6.55989 14.4821 6.37422 14.2965 5.86878 14.2965H4.8682C3.20745 14.2965 2.48539 13.5021 2.48539 11.9136V5.91019C2.48539 4.33197 3.20745 3.53769 4.8682 3.53769H15.1112C16.7719 3.53769 17.494 4.33197 17.494 5.91019V11.9136C17.494 13.5021 16.7719 14.2965 15.1112 14.2965H10.1805C9.6854 14.2965 9.42752 14.3686 9.09743 14.7194L6.55989 17.3085Z" fill="#B5B5B5"/>
<path d="M5.4974 8.74696H8.90141C9.53064 8.74696 9.85041 8.43751 9.85041 7.80828V6.32289C9.85041 5.69367 9.53064 5.39453 8.90141 5.39453H5.4974C4.85785 5.39453 4.53809 5.69367 4.53809 6.32289V7.80828C4.53809 8.43751 4.85785 8.74696 5.4974 8.74696ZM6.45672 12.3985H9.36559C10.0051 12.3985 10.3146 12.0994 10.3146 11.4599V10.4902C10.3146 9.861 10.0051 9.55155 9.36559 9.55155H6.45672C5.82748 9.55155 5.50772 9.861 5.50772 10.4902V11.4599C5.50772 12.0994 5.82748 12.3985 6.45672 12.3985ZM12.0682 11.9344H14.4716C15.1008 11.9344 15.4103 11.6249 15.4103 11.006V6.85929C15.4103 6.23006 15.1008 5.9206 14.4716 5.9206H12.0682C11.4286 5.9206 11.1192 6.23006 11.1192 6.85929V11.006C11.1192 11.6249 11.4286 11.9344 12.0682 11.9344Z" fill="#B5B5B5"/>
</g>
<defs>
<clipPath id="clip0_4002_8495">
<rect width="18.361" height="18" fill="white" transform="translate(1 1)"/>
</clipPath>
</defs>
</svg>
