<svg width="18" height="18" viewBox="0 0 18 18" fill="none" xmlns="http://www.w3.org/2000/svg">
<g opacity="0.2">
<path d="M12.8339 11.4472C8.95404 11.4472 6.57398 9.08859 6.57398 5.30212C6.57398 4.2223 6.78523 3.27035 7.04577 2.75886C7.1514 2.55284 7.17252 2.45338 7.17252 2.3113C7.17252 2.07686 6.95423 1.7998 6.65848 1.7998C6.60216 1.7998 6.46836 1.82112 6.2712 1.89926C3.66582 2.96488 1.7998 5.67154 1.7998 8.7192C1.7998 12.8325 5.10934 16.1643 9.17938 16.1643C12.0242 16.1643 14.5943 14.5517 15.8407 11.8948C15.9322 11.71 15.9393 11.5537 15.9393 11.4756C15.9393 11.1843 15.6928 10.9854 15.4745 10.9854C15.3619 10.9854 15.2774 10.9925 15.1083 11.0564C14.538 11.2909 13.6789 11.4472 12.8339 11.4472ZM2.90533 8.66947C2.90533 6.4601 4.04606 4.37149 5.86983 3.19931C5.6445 3.85999 5.5248 4.59172 5.5248 5.40158C5.5248 9.84166 8.17947 12.4844 12.672 12.4844C13.3973 12.4844 14.0099 12.3991 14.5943 12.1931C13.524 13.9762 11.489 15.0631 9.22863 15.0631C5.60929 15.0631 2.90533 12.3423 2.90533 8.66947Z" fill="#1F1F1F"/>
</g>
</svg>
