<svg width="20" height="20" viewBox="0 0 20 20" fill="none" xmlns="http://www.w3.org/2000/svg">
<path d="M5.00067 16.8421C5.3301 17.0914 5.73076 16.9935 6.21154 16.6463L9.83526 13.9841L13.4679 16.6463C13.9398 16.9935 14.3405 17.0914 14.6699 16.8421C14.9904 16.6017 15.0527 16.1922 14.8569 15.6401L13.4234 11.3754L17.0827 8.74884C17.5635 8.41942 17.7682 8.05437 17.6347 7.66262C17.51 7.28867 17.1361 7.1106 16.5485 7.1106H12.0612L10.6989 2.85473C10.5208 2.29382 10.2448 2 9.83526 2C9.43461 2 9.1586 2.29382 8.97163 2.85473L7.6094 7.1106H3.12203C2.5344 7.1106 2.16936 7.28867 2.03581 7.66262C1.91116 8.05437 2.11594 8.41942 2.58782 8.74884L6.24715 11.3754L4.8137 15.6401C4.61782 16.1922 4.68014 16.6017 5.00067 16.8421Z" fill="#B5B5B5"/>
</svg>
