<svg width="18" height="18" viewBox="0 0 18 18" fill="none" xmlns="http://www.w3.org/2000/svg">
<path d="M8.86783 3.80311C9.21393 3.80311 9.50107 3.51209 9.50107 3.15391V1.54958C9.50107 1.19141 9.21393 0.900391 8.86783 0.900391C8.51441 0.900391 8.2272 1.19141 8.2272 1.54958V3.15391C8.2272 3.51209 8.51441 3.80311 8.86783 3.80311ZM12.476 5.33281C12.7264 5.57906 13.1314 5.58652 13.3817 5.33281L14.5084 4.19113C14.7513 3.94489 14.7513 3.52701 14.5084 3.2733C14.2654 3.02706 13.853 3.02706 13.61 3.2733L12.476 4.42245C12.233 4.66869 12.233 5.08657 12.476 5.33281ZM13.9708 8.99665C13.9708 9.34737 14.2654 9.63834 14.6115 9.63834H16.1946C16.5407 9.63834 16.8279 9.34737 16.8279 8.99665C16.8279 8.64592 16.5407 8.34745 16.1946 8.34745H14.6115C14.2654 8.34745 13.9708 8.64592 13.9708 8.99665ZM12.476 12.6605C12.233 12.9142 12.233 13.3246 12.476 13.5708L13.61 14.7275C13.853 14.9737 14.2654 14.9587 14.5084 14.72C14.7513 14.4663 14.7513 14.0559 14.5084 13.8096L13.3744 12.6605C13.1314 12.4143 12.7264 12.4217 12.476 12.6605ZM8.86783 14.1902C8.51441 14.1902 8.2272 14.4812 8.2272 14.8319V16.4437C8.2272 16.7944 8.51441 17.0854 8.86783 17.0854C9.21393 17.0854 9.50107 16.7944 9.50107 16.4437V14.8319C9.50107 14.4812 9.21393 14.1902 8.86783 14.1902ZM5.25229 12.6605C5.00193 12.4217 4.58957 12.4143 4.34657 12.6605L3.21993 13.8022C2.97694 14.0484 2.97694 14.4588 3.21257 14.7126C3.45557 14.9513 3.87529 14.9662 4.1183 14.72L5.24493 13.5708C5.48793 13.3246 5.48793 12.9142 5.25229 12.6605ZM3.75748 8.99665C3.75748 8.64592 3.46294 8.34745 3.11684 8.34745H1.53366C1.18757 8.34745 0.900391 8.64592 0.900391 8.99665C0.900391 9.34737 1.18757 9.63834 1.53366 9.63834H3.11684C3.46294 9.63834 3.75748 9.34737 3.75748 8.99665ZM5.24493 5.33281C5.48793 5.09403 5.48793 4.66124 5.25229 4.42245L4.12566 3.2733C3.89002 3.03452 3.47029 3.02706 3.2273 3.2733C2.9843 3.52701 2.9843 3.94489 3.21993 4.18367L4.34657 5.33281C4.58957 5.57906 4.99457 5.57906 5.24493 5.33281Z" fill="#5B5B5B"/>
<path d="M8.86775 12.7942C10.9369 12.7942 12.6158 11.0928 12.6158 8.99605C12.6158 6.89923 10.9369 5.19043 8.86775 5.19043C6.79858 5.19043 5.1123 6.89923 5.1123 8.99605C5.1123 11.0928 6.79858 12.7942 8.86775 12.7942ZM8.86775 11.66C7.40975 11.66 6.23157 10.4735 6.23157 8.99605C6.23157 7.51857 7.40975 6.32466 8.86775 6.32466C10.3258 6.32466 11.4965 7.51857 11.4965 8.99605C11.4965 10.4735 10.3258 11.66 8.86775 11.66Z" fill="#5B5B5B"/>
</svg>
