<svg width="20" height="20" viewBox="0 0 20 20" fill="none" xmlns="http://www.w3.org/2000/svg">
<path d="M10.6256 17.2335L16.8189 11.0321C17.3235 10.5276 17.356 10.2264 17.356 9.55909V7.13388C17.356 6.41773 17.1689 6.198 16.6806 5.71784L15.2319 4.26109C14.7518 3.78093 14.5239 3.59375 13.8159 3.59375H11.3906C10.7233 3.59375 10.4222 3.61816 9.91761 4.12274L3.71619 10.3241C2.77214 11.2681 2.74772 12.2447 3.72432 13.205L7.74465 17.2254C8.72126 18.1938 9.6816 18.1856 10.6256 17.2335ZM12.7253 8.82666C12.1963 8.82666 11.7975 8.41162 11.7975 7.89077C11.7975 7.37805 12.1963 6.96298 12.7253 6.96298C13.2625 6.96298 13.6613 7.37805 13.6613 7.89077C13.6613 8.41162 13.2625 8.82666 12.7253 8.82666Z" fill="#B5B5B5"/>
</svg>
