<svg width="24" height="18" viewBox="0 0 24 18" fill="none" xmlns="http://www.w3.org/2000/svg">
<g clip-path="url(#clip0_4002_8530)">
<path d="M13.5762 3.24669V3.66773H13.3797C12.9563 3.66773 12.5675 3.71889 12.2196 3.82095V3.28412C12.2196 1.9555 11.4617 1.25376 10.2173 1.25376H3.34961C2.11456 1.25376 1.34733 1.9555 1.34733 3.28412V7.4103C1.34733 8.73892 2.11456 9.42197 3.34961 9.42197H4.13555C4.49112 9.42197 4.78116 9.63716 4.78116 10.1143V11.9856L7.21382 9.80556C7.53195 9.52487 7.72843 9.42197 8.17755 9.42197H10.0956V10.6851H8.13076L5.6326 12.8184C5.11799 13.2674 4.84665 13.492 4.43498 13.492C3.84551 13.492 3.52739 13.0804 3.52739 12.4441V10.6851H3.28412C1.32862 10.6851 0 9.48747 0 7.42904V3.24669C0 1.19763 1.32862 0 3.28412 0H10.2828C12.2383 0 13.5762 1.19763 13.5762 3.24669Z" fill="#B5B5B5"/>
<path d="M7.67215 2.70362L9.44989 7.4754C9.61833 7.94323 9.36569 8.36429 8.87913 8.36429C8.56104 8.36429 8.36455 8.19586 8.25226 7.84033L7.84059 6.63335H5.74472L5.3424 7.84033C5.22075 8.19586 5.02431 8.36429 4.70618 8.36429C4.229 8.36429 3.96702 7.94323 4.14477 7.4754L5.9038 2.70362C6.0535 2.29194 6.36227 2.06738 6.7833 2.06738C7.21368 2.06738 7.52246 2.29194 7.67215 2.70362ZM6.08155 5.62286H7.50376L6.78813 3.51221L6.08155 5.62286Z" fill="#B5B5B5"/>
<path d="M23.6626 6.91467V11.097C23.6626 13.1554 22.334 14.3531 20.3784 14.3531H20.1445V16.1121C20.1445 16.7483 19.8171 17.16 19.237 17.16C18.8253 17.16 18.5539 16.9355 18.03 16.4863L15.5318 14.3531H13.3798C11.3307 14.3531 10.0957 13.1554 10.0957 11.1064V6.91467C10.0957 4.86559 11.3307 3.66797 13.3798 3.66797H20.3784C22.334 3.66797 23.6626 4.86559 23.6626 6.91467ZM14.4464 7.2702C14.1096 7.2702 13.857 7.50413 13.857 7.82226C13.857 8.14035 14.1096 8.37428 14.4464 8.37428H14.9798C15.1856 9.09473 15.5505 9.76839 16.0557 10.3391C15.5692 10.6479 14.9891 10.8818 14.3342 11.0409C14.0161 11.1157 13.8196 11.4245 13.8851 11.7613C13.9786 12.0794 14.2967 12.2291 14.6429 12.1356C15.4569 11.9578 16.2335 11.621 16.9072 11.1251C17.5528 11.6116 18.32 11.9578 19.0686 12.1356C19.4709 12.2198 19.7984 12.0982 19.8826 11.7613C19.9855 11.3964 19.8171 11.1157 19.4521 11.0409C18.8066 10.8912 18.2358 10.6572 17.7399 10.3391C18.2452 9.78709 18.6101 9.11343 18.8066 8.37428H19.3399C19.6861 8.37428 19.9387 8.14035 19.9387 7.82226C19.9387 7.50413 19.6861 7.2702 19.3399 7.2702H14.4464ZM16.9072 9.6374C16.5797 9.26313 16.3177 8.8421 16.14 8.37428H17.6463C17.478 8.83275 17.2253 9.25378 16.9072 9.6374ZM16.14 5.26792C15.8593 5.39891 15.7283 5.73574 15.878 6.04452L16.2055 6.73688C16.3365 7.02696 16.6733 7.14856 16.9633 7.01757C17.2721 6.86787 17.3937 6.53104 17.2534 6.24101L16.9165 5.55799C16.7575 5.23987 16.4394 5.09952 16.14 5.26792Z" fill="#B5B5B5"/>
</g>
<defs>
<clipPath id="clip0_4002_8530">
<rect width="24" height="18" fill="white"/>
</clipPath>
</defs>
</svg>
